<mxfile host="Electron" modified="2024-04-10T09:10:36.042Z" agent="Mozilla/5.0 (X11; Linux x86_64) AppleWebKit/537.36 (KHTML, like Gecko) draw.io/24.1.0 Chrome/120.0.6099.109 Electron/28.1.0 Safari/537.36" etag="emEzm9GmhpG94m5msaoP" version="24.1.0" type="device">
  <diagram name="Page-1" id="4mnnEqeC0T2L56igqeZn">
    <mxGraphModel dx="819" dy="566" grid="1" gridSize="10" guides="1" tooltips="1" connect="1" arrows="1" fold="1" page="1" pageScale="1" pageWidth="850" pageHeight="1100" math="0" shadow="0">
      <root>
        <mxCell id="0" />
        <mxCell id="1" parent="0" />
        <mxCell id="qCU14yPaNZpBJ_KPHPik-10" style="rounded=0;orthogonalLoop=1;jettySize=auto;html=1;exitX=1;exitY=0.25;exitDx=0;exitDy=0;entryX=0;entryY=0.5;entryDx=0;entryDy=0;" edge="1" parent="1" source="qCU14yPaNZpBJ_KPHPik-2" target="qCU14yPaNZpBJ_KPHPik-5">
          <mxGeometry relative="1" as="geometry" />
        </mxCell>
        <mxCell id="qCU14yPaNZpBJ_KPHPik-12" value="one" style="edgeLabel;html=1;align=center;verticalAlign=middle;resizable=0;points=[];fontFamily=Courier New;" vertex="1" connectable="0" parent="qCU14yPaNZpBJ_KPHPik-10">
          <mxGeometry x="-0.3026" y="-2" relative="1" as="geometry">
            <mxPoint x="3" y="-2" as="offset" />
          </mxGeometry>
        </mxCell>
        <mxCell id="qCU14yPaNZpBJ_KPHPik-11" style="rounded=0;orthogonalLoop=1;jettySize=auto;html=1;exitX=1;exitY=0.75;exitDx=0;exitDy=0;entryX=0;entryY=0.5;entryDx=0;entryDy=0;" edge="1" parent="1" source="qCU14yPaNZpBJ_KPHPik-2" target="qCU14yPaNZpBJ_KPHPik-5">
          <mxGeometry relative="1" as="geometry" />
        </mxCell>
        <mxCell id="qCU14yPaNZpBJ_KPHPik-13" value="two" style="edgeLabel;html=1;align=center;verticalAlign=middle;resizable=0;points=[];fontFamily=Courier New;" vertex="1" connectable="0" parent="qCU14yPaNZpBJ_KPHPik-11">
          <mxGeometry x="-0.1162" y="2" relative="1" as="geometry">
            <mxPoint x="-5" y="4" as="offset" />
          </mxGeometry>
        </mxCell>
        <mxCell id="qCU14yPaNZpBJ_KPHPik-2" value="Load generator" style="rounded=1;whiteSpace=wrap;html=1;" vertex="1" parent="1">
          <mxGeometry x="80" y="200" width="120" height="60" as="geometry" />
        </mxCell>
        <mxCell id="qCU14yPaNZpBJ_KPHPik-26" style="rounded=0;orthogonalLoop=1;jettySize=auto;html=1;exitX=1;exitY=0.5;exitDx=0;exitDy=0;entryX=0;entryY=0;entryDx=0;entryDy=0;" edge="1" parent="1" source="qCU14yPaNZpBJ_KPHPik-5" target="qCU14yPaNZpBJ_KPHPik-8">
          <mxGeometry relative="1" as="geometry" />
        </mxCell>
        <mxCell id="qCU14yPaNZpBJ_KPHPik-28" value="uuid,int" style="edgeLabel;html=1;align=center;verticalAlign=middle;resizable=0;points=[];fontFamily=Courier New;" vertex="1" connectable="0" parent="qCU14yPaNZpBJ_KPHPik-26">
          <mxGeometry x="0.0878" y="-1" relative="1" as="geometry">
            <mxPoint x="5" y="-7" as="offset" />
          </mxGeometry>
        </mxCell>
        <mxCell id="qCU14yPaNZpBJ_KPHPik-27" style="rounded=0;orthogonalLoop=1;jettySize=auto;html=1;exitX=1;exitY=0.5;exitDx=0;exitDy=0;entryX=0;entryY=0.5;entryDx=0;entryDy=0;" edge="1" parent="1" source="qCU14yPaNZpBJ_KPHPik-5" target="qCU14yPaNZpBJ_KPHPik-8">
          <mxGeometry relative="1" as="geometry" />
        </mxCell>
        <mxCell id="qCU14yPaNZpBJ_KPHPik-29" value="uuid" style="edgeLabel;html=1;align=center;verticalAlign=middle;resizable=0;points=[];fontFamily=Courier New;" vertex="1" connectable="0" parent="qCU14yPaNZpBJ_KPHPik-27">
          <mxGeometry x="0.1123" y="2" relative="1" as="geometry">
            <mxPoint x="12" y="14" as="offset" />
          </mxGeometry>
        </mxCell>
        <mxCell id="qCU14yPaNZpBJ_KPHPik-5" value="Service &lt;i&gt;alpha&lt;/i&gt;" style="ellipse;whiteSpace=wrap;html=1;fillColor=#dae8fc;strokeColor=#6c8ebf;" vertex="1" parent="1">
          <mxGeometry x="280" y="200" width="120" height="60" as="geometry" />
        </mxCell>
        <mxCell id="qCU14yPaNZpBJ_KPHPik-8" value="Service &lt;i&gt;epsilon&lt;sub&gt;1&lt;/sub&gt;&lt;/i&gt;" style="ellipse;whiteSpace=wrap;html=1;fillColor=#dae8fc;strokeColor=#6c8ebf;" vertex="1" parent="1">
          <mxGeometry x="520" y="250" width="120" height="60" as="geometry" />
        </mxCell>
        <mxCell id="qCU14yPaNZpBJ_KPHPik-9" value="Service &lt;i&gt;epsilon&lt;span style=&quot;font-size: 10px;&quot;&gt;&lt;sub&gt;2&lt;/sub&gt;&lt;/span&gt;&lt;/i&gt;" style="ellipse;whiteSpace=wrap;html=1;fillColor=#f8cecc;strokeColor=#b85450;" vertex="1" parent="1">
          <mxGeometry x="520" y="350" width="120" height="60" as="geometry" />
        </mxCell>
        <mxCell id="qCU14yPaNZpBJ_KPHPik-14" style="rounded=0;orthogonalLoop=1;jettySize=auto;html=1;exitX=1;exitY=0.25;exitDx=0;exitDy=0;entryX=0;entryY=0.5;entryDx=0;entryDy=0;" edge="1" parent="1" source="qCU14yPaNZpBJ_KPHPik-18" target="qCU14yPaNZpBJ_KPHPik-19">
          <mxGeometry relative="1" as="geometry" />
        </mxCell>
        <mxCell id="qCU14yPaNZpBJ_KPHPik-15" value="one" style="edgeLabel;html=1;align=center;verticalAlign=middle;resizable=0;points=[];fontFamily=Courier New;" vertex="1" connectable="0" parent="qCU14yPaNZpBJ_KPHPik-14">
          <mxGeometry x="-0.3026" y="-2" relative="1" as="geometry">
            <mxPoint x="3" y="-2" as="offset" />
          </mxGeometry>
        </mxCell>
        <mxCell id="qCU14yPaNZpBJ_KPHPik-16" style="rounded=0;orthogonalLoop=1;jettySize=auto;html=1;exitX=1;exitY=0.75;exitDx=0;exitDy=0;entryX=0;entryY=0.5;entryDx=0;entryDy=0;" edge="1" parent="1" source="qCU14yPaNZpBJ_KPHPik-18" target="qCU14yPaNZpBJ_KPHPik-19">
          <mxGeometry relative="1" as="geometry" />
        </mxCell>
        <mxCell id="qCU14yPaNZpBJ_KPHPik-17" value="two" style="edgeLabel;html=1;align=center;verticalAlign=middle;resizable=0;points=[];fontFamily=Courier New;" vertex="1" connectable="0" parent="qCU14yPaNZpBJ_KPHPik-16">
          <mxGeometry x="-0.1162" y="2" relative="1" as="geometry">
            <mxPoint x="-5" y="4" as="offset" />
          </mxGeometry>
        </mxCell>
        <mxCell id="qCU14yPaNZpBJ_KPHPik-18" value="Load generator" style="rounded=1;whiteSpace=wrap;html=1;" vertex="1" parent="1">
          <mxGeometry x="80" y="300" width="120" height="60" as="geometry" />
        </mxCell>
        <mxCell id="qCU14yPaNZpBJ_KPHPik-30" style="rounded=0;orthogonalLoop=1;jettySize=auto;html=1;exitX=1;exitY=0.5;exitDx=0;exitDy=0;entryX=0;entryY=1;entryDx=0;entryDy=0;" edge="1" parent="1" source="qCU14yPaNZpBJ_KPHPik-19" target="qCU14yPaNZpBJ_KPHPik-8">
          <mxGeometry relative="1" as="geometry" />
        </mxCell>
        <mxCell id="qCU14yPaNZpBJ_KPHPik-32" value="&lt;font face=&quot;Courier New&quot;&gt;uuid,int&lt;/font&gt;" style="edgeLabel;html=1;align=center;verticalAlign=middle;resizable=0;points=[];" vertex="1" connectable="0" parent="qCU14yPaNZpBJ_KPHPik-30">
          <mxGeometry x="0.1298" y="-2" relative="1" as="geometry">
            <mxPoint x="-8" y="-6" as="offset" />
          </mxGeometry>
        </mxCell>
        <mxCell id="qCU14yPaNZpBJ_KPHPik-31" style="rounded=0;orthogonalLoop=1;jettySize=auto;html=1;exitX=1;exitY=0.5;exitDx=0;exitDy=0;entryX=0;entryY=0;entryDx=0;entryDy=0;" edge="1" parent="1" source="qCU14yPaNZpBJ_KPHPik-19" target="qCU14yPaNZpBJ_KPHPik-9">
          <mxGeometry relative="1" as="geometry" />
        </mxCell>
        <mxCell id="qCU14yPaNZpBJ_KPHPik-33" value="uuid" style="edgeLabel;html=1;align=center;verticalAlign=middle;resizable=0;points=[];fontFamily=Courier New;" vertex="1" connectable="0" parent="qCU14yPaNZpBJ_KPHPik-31">
          <mxGeometry x="0.1131" y="-3" relative="1" as="geometry">
            <mxPoint as="offset" />
          </mxGeometry>
        </mxCell>
        <mxCell id="qCU14yPaNZpBJ_KPHPik-19" value="Service &lt;i&gt;beta&lt;/i&gt;" style="ellipse;whiteSpace=wrap;html=1;fillColor=#dae8fc;strokeColor=#6c8ebf;" vertex="1" parent="1">
          <mxGeometry x="280" y="300" width="120" height="60" as="geometry" />
        </mxCell>
        <mxCell id="qCU14yPaNZpBJ_KPHPik-20" style="rounded=0;orthogonalLoop=1;jettySize=auto;html=1;exitX=1;exitY=0.25;exitDx=0;exitDy=0;entryX=0;entryY=0.5;entryDx=0;entryDy=0;" edge="1" parent="1" source="qCU14yPaNZpBJ_KPHPik-24" target="qCU14yPaNZpBJ_KPHPik-25">
          <mxGeometry relative="1" as="geometry" />
        </mxCell>
        <mxCell id="qCU14yPaNZpBJ_KPHPik-21" value="one" style="edgeLabel;html=1;align=center;verticalAlign=middle;resizable=0;points=[];fontFamily=Courier New;" vertex="1" connectable="0" parent="qCU14yPaNZpBJ_KPHPik-20">
          <mxGeometry x="-0.3026" y="-2" relative="1" as="geometry">
            <mxPoint x="3" y="-2" as="offset" />
          </mxGeometry>
        </mxCell>
        <mxCell id="qCU14yPaNZpBJ_KPHPik-22" style="rounded=0;orthogonalLoop=1;jettySize=auto;html=1;exitX=1;exitY=0.75;exitDx=0;exitDy=0;entryX=0;entryY=0.5;entryDx=0;entryDy=0;" edge="1" parent="1" source="qCU14yPaNZpBJ_KPHPik-24" target="qCU14yPaNZpBJ_KPHPik-25">
          <mxGeometry relative="1" as="geometry" />
        </mxCell>
        <mxCell id="qCU14yPaNZpBJ_KPHPik-23" value="two" style="edgeLabel;html=1;align=center;verticalAlign=middle;resizable=0;points=[];fontFamily=Courier New;" vertex="1" connectable="0" parent="qCU14yPaNZpBJ_KPHPik-22">
          <mxGeometry x="-0.1162" y="2" relative="1" as="geometry">
            <mxPoint x="-5" y="4" as="offset" />
          </mxGeometry>
        </mxCell>
        <mxCell id="qCU14yPaNZpBJ_KPHPik-24" value="Load generator" style="rounded=1;whiteSpace=wrap;html=1;" vertex="1" parent="1">
          <mxGeometry x="80" y="400" width="120" height="60" as="geometry" />
        </mxCell>
        <mxCell id="qCU14yPaNZpBJ_KPHPik-34" style="rounded=0;orthogonalLoop=1;jettySize=auto;html=1;exitX=1;exitY=0.5;exitDx=0;exitDy=0;entryX=0;entryY=0.5;entryDx=0;entryDy=0;" edge="1" parent="1" source="qCU14yPaNZpBJ_KPHPik-25" target="qCU14yPaNZpBJ_KPHPik-9">
          <mxGeometry relative="1" as="geometry" />
        </mxCell>
        <mxCell id="qCU14yPaNZpBJ_KPHPik-36" value="&lt;span style=&quot;font-family: &amp;quot;Courier New&amp;quot;;&quot;&gt;uuid,int&lt;/span&gt;" style="edgeLabel;html=1;align=center;verticalAlign=middle;resizable=0;points=[];" vertex="1" connectable="0" parent="qCU14yPaNZpBJ_KPHPik-34">
          <mxGeometry x="0.1181" y="-3" relative="1" as="geometry">
            <mxPoint x="-8" y="-15" as="offset" />
          </mxGeometry>
        </mxCell>
        <mxCell id="qCU14yPaNZpBJ_KPHPik-35" style="rounded=0;orthogonalLoop=1;jettySize=auto;html=1;exitX=1;exitY=0.5;exitDx=0;exitDy=0;entryX=0;entryY=1;entryDx=0;entryDy=0;" edge="1" parent="1" source="qCU14yPaNZpBJ_KPHPik-25" target="qCU14yPaNZpBJ_KPHPik-9">
          <mxGeometry relative="1" as="geometry" />
        </mxCell>
        <mxCell id="qCU14yPaNZpBJ_KPHPik-37" value="uuid" style="edgeLabel;html=1;align=center;verticalAlign=middle;resizable=0;points=[];fontFamily=Courier New;" vertex="1" connectable="0" parent="qCU14yPaNZpBJ_KPHPik-35">
          <mxGeometry x="0.0838" relative="1" as="geometry">
            <mxPoint x="3" y="5" as="offset" />
          </mxGeometry>
        </mxCell>
        <mxCell id="qCU14yPaNZpBJ_KPHPik-25" value="Service &lt;i&gt;gamma&lt;/i&gt;" style="ellipse;whiteSpace=wrap;html=1;fillColor=#dae8fc;strokeColor=#6c8ebf;" vertex="1" parent="1">
          <mxGeometry x="280" y="400" width="120" height="60" as="geometry" />
        </mxCell>
      </root>
    </mxGraphModel>
  </diagram>
</mxfile>
